<svg width="466" height="164" viewBox="0 0 466 164" fill="none" xmlns="http://www.w3.org/2000/svg">
<path d="M181.288 68.432C178.408 68.432 175.88 67.888 173.704 66.8C171.528 65.68 169.816 64 168.568 61.76C167.32 59.52 166.696 56.688 166.696 53.264C166.696 50.48 167.096 47.904 167.896 45.536C168.696 43.168 169.848 41.104 171.352 39.344C172.888 37.584 174.728 36.208 176.872 35.216C179.048 34.224 181.496 33.728 184.216 33.728C186.552 33.728 188.68 34.112 190.6 34.88C192.52 35.648 194.088 36.704 195.304 38.048L193.528 41.216C192.216 39.904 190.792 38.928 189.256 38.288C187.72 37.648 185.992 37.328 184.072 37.328C181.32 37.328 178.968 38.016 177.016 39.392C175.064 40.768 173.56 42.656 172.504 45.056C171.448 47.424 170.92 50.128 170.92 53.168C170.92 57.328 171.864 60.32 173.752 62.144C175.64 63.936 178.264 64.832 181.624 64.832C183.384 64.832 185 64.544 186.472 63.968C187.976 63.36 189.512 62.384 191.08 61.04L192.52 64.208C191.048 65.584 189.336 66.64 187.384 67.376C185.464 68.08 183.432 68.432 181.288 68.432ZM193.541 68L213.845 34.16H217.205L226.709 68H222.869L220.565 59.36H202.901L197.813 68H193.541ZM214.949 38.768L204.821 56.048H219.653L215.045 38.768H214.949ZM231.774 68L237.15 34.16H249.198C252.846 34.16 255.582 34.976 257.406 36.608C259.262 38.24 260.19 40.464 260.19 43.28C260.19 46.224 259.326 48.544 257.598 50.24C255.87 51.936 253.63 52.976 250.878 53.36C251.614 53.712 252.254 54.24 252.798 54.944C253.374 55.648 253.854 56.512 254.238 57.536L258.27 68H254.238L250.254 57.488C249.742 56.112 249.054 55.136 248.19 54.56C247.358 53.984 246.158 53.696 244.59 53.696H237.966L235.71 68H231.774ZM238.494 50.576H248.094C250.654 50.576 252.654 49.968 254.094 48.752C255.534 47.536 256.254 45.792 256.254 43.52C256.254 41.504 255.646 39.984 254.43 38.96C253.246 37.936 251.358 37.424 248.766 37.424H240.558L238.494 50.576ZM263.883 68L269.259 34.16H290.619L290.091 37.472H272.571L270.699 49.184H287.259L286.731 52.496H270.171L268.203 64.688H285.723L285.243 68H263.883ZM291.868 68L297.244 34.16H318.604L318.076 37.472H300.556L298.684 49.184H315.244L314.716 52.496H298.156L296.188 64.688H313.708L313.228 68H291.868ZM319.852 68L325.228 34.16H337.276C340.924 34.16 343.66 34.976 345.484 36.608C347.34 38.24 348.268 40.464 348.268 43.28C348.268 46.224 347.404 48.544 345.676 50.24C343.948 51.936 341.708 52.976 338.956 53.36C339.692 53.712 340.332 54.24 340.876 54.944C341.452 55.648 341.932 56.512 342.316 57.536L346.348 68H342.316L338.332 57.488C337.82 56.112 337.132 55.136 336.268 54.56C335.436 53.984 334.236 53.696 332.668 53.696H326.044L323.788 68H319.852ZM326.572 50.576H336.172C338.732 50.576 340.732 49.968 342.172 48.752C343.612 47.536 344.332 45.792 344.332 43.52C344.332 41.504 343.724 39.984 342.508 38.96C341.324 37.936 339.436 37.424 336.844 37.424H328.636L326.572 50.576ZM164.2 128L169.576 94.16H183.88C187.976 94.16 191.032 95.04 193.048 96.8C195.096 98.528 196.12 100.912 196.12 103.952C196.12 107.92 194.904 110.976 192.472 113.12C190.072 115.264 186.584 116.336 182.008 116.336H174.904L173.032 128H164.2ZM175.96 109.568H182.344C185.928 109.568 187.72 107.952 187.72 104.72C187.72 102.192 186.04 100.928 182.68 100.928H177.304L175.96 109.568ZM196.638 128L202.014 94.16H216.558C220.43 94.16 223.39 95.024 225.438 96.752C227.518 98.448 228.558 100.8 228.558 103.808C228.558 107.008 227.71 109.52 226.014 111.344C224.35 113.136 222.158 114.32 219.438 114.896C220.366 115.248 221.15 115.824 221.79 116.624C222.43 117.392 222.974 118.336 223.422 119.456L226.686 128H217.662L213.822 117.824C213.502 116.928 213.07 116.304 212.526 115.952C212.014 115.568 211.294 115.376 210.366 115.376H207.486L205.47 128H196.638ZM208.446 109.136H214.83C218.382 109.136 220.158 107.632 220.158 104.624C220.158 103.376 219.742 102.448 218.91 101.84C218.11 101.232 216.83 100.928 215.07 100.928H209.742L208.446 109.136ZM248.102 128.528C244.87 128.528 242.054 127.936 239.654 126.752C237.254 125.536 235.382 123.808 234.038 121.568C232.726 119.296 232.07 116.56 232.07 113.36C232.07 109.456 232.838 106.032 234.374 103.088C235.91 100.112 238.054 97.792 240.806 96.128C243.59 94.464 246.806 93.632 250.454 93.632C253.686 93.632 256.502 94.24 258.902 95.456C261.302 96.64 263.158 98.368 264.47 100.64C265.814 102.88 266.486 105.584 266.486 108.752C266.486 112.688 265.718 116.144 264.182 119.12C262.646 122.064 260.502 124.368 257.75 126.032C254.998 127.696 251.782 128.528 248.102 128.528ZM248.198 121.136C250.118 121.136 251.75 120.624 253.094 119.6C254.47 118.576 255.526 117.152 256.262 115.328C256.998 113.472 257.366 111.344 257.366 108.944C257.366 106.256 256.726 104.272 255.446 102.992C254.198 101.68 252.486 101.024 250.31 101.024C248.422 101.024 246.79 101.536 245.414 102.56C244.07 103.584 243.03 105.024 242.294 106.88C241.59 108.704 241.238 110.816 241.238 113.216C241.238 115.904 241.862 117.904 243.11 119.216C244.358 120.496 246.054 121.136 248.198 121.136ZM282.357 128.528C279.861 128.528 277.413 128.208 275.013 127.568C272.613 126.896 270.485 125.888 268.629 124.544L271.509 117.92C273.461 119.136 275.461 120 277.509 120.512C279.557 121.024 281.461 121.28 283.221 121.28C285.045 121.28 286.437 120.992 287.397 120.416C288.389 119.84 288.885 119.088 288.885 118.16C288.885 117.424 288.581 116.8 287.973 116.288C287.397 115.776 286.469 115.392 285.189 115.136L279.669 113.792C277.237 113.248 275.301 112.208 273.861 110.672C272.453 109.136 271.749 107.232 271.749 104.96C271.749 102.528 272.405 100.48 273.717 98.816C275.061 97.12 276.821 95.84 278.997 94.976C281.205 94.08 283.573 93.632 286.101 93.632C288.213 93.632 290.357 93.936 292.533 94.544C294.741 95.152 296.741 96.112 298.533 97.424L295.509 103.712C294.069 102.688 292.485 101.968 290.757 101.552C289.061 101.104 287.493 100.88 286.053 100.88C284.293 100.88 282.901 101.184 281.877 101.792C280.885 102.368 280.389 103.12 280.389 104.048C280.389 105.488 281.509 106.48 283.749 107.024L289.269 108.32C291.893 108.928 293.925 110.016 295.365 111.584C296.805 113.12 297.525 114.976 297.525 117.152C297.525 119.072 297.109 120.752 296.277 122.192C295.445 123.6 294.325 124.784 292.917 125.744C291.509 126.672 289.893 127.376 288.069 127.856C286.245 128.304 284.341 128.528 282.357 128.528ZM300.278 128L305.654 94.16H319.958C324.054 94.16 327.11 95.04 329.126 96.8C331.174 98.528 332.198 100.912 332.198 103.952C332.198 107.92 330.982 110.976 328.55 113.12C326.15 115.264 322.662 116.336 318.086 116.336H310.982L309.11 128H300.278ZM312.038 109.568H318.422C322.006 109.568 323.798 107.952 323.798 104.72C323.798 102.192 322.118 100.928 318.758 100.928H313.382L312.038 109.568ZM332.764 128L338.092 94.16H361.996L360.94 100.976H345.436L344.428 107.408H358.828L357.724 114.224H343.324L342.22 121.184H357.676L356.62 128H332.764ZM380.534 128.528C377.398 128.528 374.582 127.952 372.086 126.8C369.622 125.616 367.67 123.872 366.23 121.568C364.822 119.232 364.118 116.368 364.118 112.976C364.118 110.256 364.534 107.728 365.366 105.392C366.198 103.056 367.414 101.008 369.014 99.248C370.646 97.488 372.646 96.112 375.014 95.12C377.414 94.128 380.166 93.632 383.27 93.632C385.574 93.632 387.75 93.984 389.798 94.688C391.846 95.36 393.462 96.24 394.646 97.328L391.334 104.24C388.742 102.288 385.99 101.312 383.078 101.312C380.934 101.312 379.142 101.824 377.702 102.848C376.294 103.84 375.222 105.2 374.486 106.928C373.782 108.624 373.43 110.528 373.43 112.64C373.43 115.456 374.086 117.536 375.398 118.88C376.71 120.192 378.774 120.848 381.59 120.848C382.838 120.848 384.134 120.64 385.478 120.224C386.822 119.808 388.23 119.12 389.702 118.16L391.91 125.12C391.014 125.824 389.926 126.432 388.646 126.944C387.366 127.456 386.022 127.84 384.614 128.096C383.206 128.384 381.846 128.528 380.534 128.528ZM402.746 128L406.97 101.36H396.218L397.37 94.16H427.706L426.554 101.36H415.802L411.578 128H402.746ZM437.982 128.528C435.486 128.528 433.038 128.208 430.638 127.568C428.238 126.896 426.11 125.888 424.254 124.544L427.134 117.92C429.086 119.136 431.086 120 433.134 120.512C435.182 121.024 437.086 121.28 438.846 121.28C440.67 121.28 442.062 120.992 443.022 120.416C444.014 119.84 444.51 119.088 444.51 118.16C444.51 117.424 444.206 116.8 443.598 116.288C443.022 115.776 442.094 115.392 440.814 115.136L435.294 113.792C432.862 113.248 430.926 112.208 429.486 110.672C428.078 109.136 427.374 107.232 427.374 104.96C427.374 102.528 428.03 100.48 429.342 98.816C430.686 97.12 432.446 95.84 434.622 94.976C436.83 94.08 439.198 93.632 441.726 93.632C443.838 93.632 445.982 93.936 448.158 94.544C450.366 95.152 452.366 96.112 454.158 97.424L451.134 103.712C449.694 102.688 448.11 101.968 446.382 101.552C444.686 101.104 443.118 100.88 441.678 100.88C439.918 100.88 438.526 101.184 437.502 101.792C436.51 102.368 436.014 103.12 436.014 104.048C436.014 105.488 437.134 106.48 439.374 107.024L444.894 108.32C447.518 108.928 449.55 110.016 450.99 111.584C452.43 113.12 453.15 114.976 453.15 117.152C453.15 119.072 452.734 120.752 451.902 122.192C451.07 123.6 449.95 124.784 448.542 125.744C447.134 126.672 445.518 127.376 443.694 127.856C441.87 128.304 439.966 128.528 437.982 128.528Z" fill="#002688"/>
<rect x="135" y="17" width="5" height="130" fill="#002688"/>
<circle cx="80" cy="86" r="23" fill="#002688"/>
<circle cx="13.5" cy="49.5" r="11" fill="#FD8E09" stroke="#002688" stroke-width="5"/>
<circle cx="27.5" cy="118.5" r="7" fill="#FD8E09" stroke="#002688" stroke-width="5"/>
<line x1="23.1336" y1="54.7718" x2="80.1336" y2="83.7718" stroke="#002688" stroke-width="5"/>
<line x1="32.6029" y1="114.927" x2="78.6029" y2="83.9268" stroke="#002688" stroke-width="5"/>
</svg>
