<svg width="90" height="90" viewBox="0 0 90 90" fill="none" xmlns="http://www.w3.org/2000/svg">
<path d="M72.1306 41.2979H59.4913C58.7244 41.2979 58.1024 41.9194 58.1024 42.6867V55.3261C58.1024 56.0934 58.7244 56.715 59.4913 56.715H72.1306C72.898 56.715 73.5195 56.0934 73.5195 55.3261V42.6867C73.5195 41.9194 72.898 41.2979 72.1306 41.2979ZM70.7422 53.9372H60.8802V44.0752H70.7422V53.9372Z" fill="white" fill-opacity="0.3"/>
<mask id="mask0_232_133" style="mask-type:luminance" maskUnits="userSpaceOnUse" x="1" y="1" width="89" height="88">
<path d="M1 1.11426H89.0326V88.8643H1V1.11426Z" fill="white"/>
</mask>
<g mask="url(#mask0_232_133)">
<path d="M87.6164 50.277C88.3833 50.277 89.0052 49.6555 89.0052 48.8881C89.0052 48.1212 88.3833 47.4992 87.6164 47.4992H80.211V44.1663H87.6164C88.3833 44.1663 89.0052 43.5448 89.0052 42.7775C89.0052 42.0105 88.3833 41.389 87.6164 41.389H80.211V35.9945C80.211 35.2275 79.589 34.606 78.8221 34.606H75.2101V26.616L81.0638 23.945C81.5586 23.7189 81.8763 23.2254 81.8763 22.6815V12.1321C81.8763 11.3647 81.2544 10.7432 80.4874 10.7432C79.7205 10.7432 79.0986 11.3647 79.0986 12.1321V21.7883L73.2448 24.4597C72.75 24.6859 72.4323 25.1794 72.4323 25.7232V34.606H67.0625V20.9932L73.5313 17.6633C73.9935 17.4255 74.2843 16.9489 74.2843 16.4285V2.50315C74.2843 1.73579 73.6624 1.11426 72.8954 1.11426C72.1285 1.11426 71.5065 1.73579 71.5065 2.50315V15.5817L65.0382 18.9116C64.5755 19.1494 64.2852 19.6264 64.2852 20.1464V34.606H59.2856V25.8343C59.2856 25.3595 59.043 24.9176 58.642 24.6629L35.2179 9.75662C34.9953 9.61469 34.7366 9.53961 34.4727 9.53961H17.5452C16.9879 8.11903 15.6068 7.10862 13.9905 7.10862C11.8841 7.10862 10.171 8.82216 10.171 10.9281C10.171 13.0344 11.8841 14.7479 13.9905 14.7479C15.6068 14.7479 16.9879 13.7375 17.5452 12.3169H34.0682L56.5078 26.5969V34.606H52.7999C52.033 34.606 51.411 35.2275 51.411 35.9945V37.1299H32.263C31.7058 35.7093 30.3247 34.6989 28.7084 34.6989C26.6025 34.6989 24.8889 36.4124 24.8889 38.5188C24.8889 40.6247 26.6025 42.3382 28.7084 42.3382C30.3247 42.3382 31.7058 41.3282 32.263 39.9072H51.411V43.981H16.6962C15.9293 43.981 15.3073 44.603 15.3073 45.3699C15.3073 46.1373 15.9293 46.7588 16.6962 46.7588H51.411V50.6472H28.1767C27.6229 50.6472 27.122 50.9762 26.9019 51.4849L24.3017 57.4988H8.37589C7.81903 56.0778 6.43752 55.0678 4.82164 55.0678C2.7153 55.0678 1.00176 56.7814 1.00176 58.8873C1.00176 60.9936 2.7153 62.7071 4.82164 62.7071C6.43752 62.7071 7.81903 61.6967 8.37589 60.2761H25.214C25.7678 60.2761 26.2691 59.9472 26.4887 59.4385L29.0894 53.425H51.411V57.4988H37.0651C36.2978 57.4988 35.6762 58.1203 35.6762 58.8873C35.6762 59.6546 36.2978 60.2761 37.0651 60.2761H51.411V62.017C51.411 62.784 52.033 63.4059 52.7999 63.4059H56.5078V70.6459H28.9176C28.6007 70.6459 28.2934 70.754 28.0465 70.9528L17.5009 79.4428C17.1302 79.323 16.7361 79.2562 16.326 79.2562C14.2196 79.2562 12.5065 80.9697 12.5065 83.0761C12.5065 85.182 14.2201 86.8959 16.326 86.8959C18.4323 86.8959 20.1459 85.182 20.1459 83.0761C20.1459 82.4159 19.9775 81.7952 19.6819 81.2532L29.4071 73.4233H57.8967C58.6637 73.4233 59.2852 72.8018 59.2852 72.0344V63.4059H64.2852V87.4962C64.2852 88.2636 64.9067 88.8851 65.6736 88.8851C66.4406 88.8851 67.0625 88.2636 67.0625 87.4962V63.4059H72.4323V87.4962C72.4323 88.2636 73.0543 88.8851 73.8212 88.8851C74.5881 88.8851 75.2101 88.2636 75.2101 87.4962V63.4059H78.8221C79.589 63.4059 80.211 62.784 80.211 62.017V56.5726H87.6164C88.3833 56.5726 89.0052 55.9511 89.0052 55.1841C89.0052 54.4168 88.3833 53.7952 87.6164 53.7952H80.211V50.277H87.6164ZM13.9905 11.9706C13.4163 11.9706 12.9484 11.5031 12.9484 10.9281C12.9484 10.3534 13.4163 9.88596 13.9905 9.88596C14.5656 9.88596 15.0326 10.3534 15.0326 10.9281C15.0326 11.5031 14.5656 11.9706 13.9905 11.9706ZM28.7084 39.5609C28.1337 39.5609 27.6663 39.0934 27.6663 38.5188C27.6663 37.9437 28.1341 37.4767 28.7084 37.4767C29.283 37.4767 29.7509 37.9437 29.7509 38.5188C29.7509 39.0934 29.283 39.5609 28.7084 39.5609ZM4.82164 59.9294C4.24698 59.9294 3.77954 59.4623 3.77954 58.8873C3.77954 58.3126 4.24698 57.8452 4.82164 57.8452C5.39629 57.8452 5.86374 58.3126 5.86374 58.8873C5.86374 59.4623 5.39629 59.9294 4.82164 59.9294ZM16.326 84.1182C15.7509 84.1182 15.2839 83.6507 15.2839 83.0761C15.2839 82.501 15.7509 82.0335 16.326 82.0335C16.9006 82.0335 17.3681 82.501 17.3681 83.0761C17.3681 83.6507 16.9006 84.1182 16.326 84.1182ZM77.4332 60.6281H54.1888V58.9771C54.1906 58.9472 54.1932 58.9176 54.1932 58.8873C54.1932 58.8573 54.1906 58.8278 54.1888 58.7979V52.1255C54.1906 52.096 54.1932 52.0661 54.1932 52.0361C54.1932 52.0058 54.1906 51.9762 54.1888 51.9463V45.4597C54.1906 45.4298 54.1932 45.4003 54.1932 45.3699C54.1932 45.34 54.1906 45.31 54.1888 45.2805V38.6082C54.1906 38.5787 54.1932 38.5487 54.1932 38.5188C54.1932 38.4884 54.1906 38.4589 54.1888 38.4289V37.3834H65.4202C65.5026 37.3985 65.5873 37.4077 65.6741 37.4077C65.7609 37.4077 65.8455 37.3985 65.928 37.3834H73.5677C73.6502 37.3985 73.7348 37.4077 73.8216 37.4077C73.9085 37.4077 73.9931 37.3985 74.0756 37.3834H77.4341V60.6281H77.4332Z" fill="white" fill-opacity="0.3"/>
</g>
</svg>
