<svg width="732" height="208" viewBox="0 0 732 208" fill="none" xmlns="http://www.w3.org/2000/svg">
<rect width="732" height="208" rx="18" fill="#E5E5E5"/>
<path d="M44.6714 28.321V36.7825" stroke="#343434" stroke-width="4.61458" stroke-miterlimit="10" stroke-linecap="round" stroke-linejoin="round"/>
<path d="M68.1445 28.321V36.7825" stroke="#343434" stroke-width="4.61458" stroke-miterlimit="10" stroke-linecap="round" stroke-linejoin="round"/>
<path d="M31.4668 48.3177H81.3489" stroke="#343434" stroke-width="4.61458" stroke-miterlimit="10" stroke-linecap="round" stroke-linejoin="round"/>
<path d="M30 59.3747V46.6542C30 38.1928 34.4014 32.5518 44.6712 32.5518H68.1451C78.415 32.5518 82.8163 38.1928 82.8163 46.6542V70.6285C82.8163 79.09 78.415 84.731 68.1451 84.731H44.6712C34.4014 84.731 30 79.09 30 70.6285" stroke="#343434" stroke-width="4.61458" stroke-miterlimit="10" stroke-linecap="round" stroke-linejoin="round"/>
<path d="M67.2456 61.3215H67.271" stroke="#343434" stroke-width="6.15278" stroke-linecap="round" stroke-linejoin="round"/>
<path d="M67.2446 69.7827H67.27" stroke="#343434" stroke-width="6.15278" stroke-linecap="round" stroke-linejoin="round"/>
<path d="M56.3916 61.3213H56.417" stroke="#343434" stroke-width="6.15278" stroke-linecap="round" stroke-linejoin="round"/>
<path d="M56.3921 69.783H56.4175" stroke="#343434" stroke-width="6.15278" stroke-linecap="round" stroke-linejoin="round"/>
<path d="M45.5366 61.3214H45.562" stroke="#343434" stroke-width="6.15278" stroke-linecap="round" stroke-linejoin="round"/>
<path d="M45.5361 69.783H45.5615" stroke="#343434" stroke-width="6.15278" stroke-linecap="round" stroke-linejoin="round"/>
</svg>
