<svg xmlns="http://www.w3.org/2000/svg" width="477" height="164" fill="none"><path fill="#FAAE6C" d="m447 82-123 71.014V10.986L447 82Z"/><path stroke="#FAAE6C" stroke-width="5" d="M356.5 15.316 472 82l-115.5 66.684V15.316Z"/><path fill="#013D71" d="M76.544 37.528h17.92L78.72 127H60.672L31.104 65.688 20.224 127H2.176l15.872-89.472h17.92l29.696 61.44 10.88-61.44Zm87.469 0-2.432 14.08h-33.92l-4.096 23.168h30.08L151.213 88.6h-30.08l-4.224 24.192h33.92L148.269 127H96.301l15.872-89.472h51.84Zm18.589 89.6-8.32-89.472h19.2l3.584 69.376 30.336-69.376h19.968l4.864 68.992 28.16-68.992h19.328L258.89 127h-21.12l-5.504-63.616L203.594 127l-20.992.128ZM363.135 101.4c0 15.36-13.184 26.496-33.664 26.496-18.56 0-32.64-9.344-30.464-26.624h18.304c-.64 7.04 3.968 12.288 12.8 12.288 8.448 0 14.08-3.584 14.08-10.624 0-16.128-39.68-11.904-40.192-38.784-.256-17.28 13.952-27.776 33.152-27.776 19.072 0 31.104 9.984 29.952 25.472h-19.072c.768-6.144-3.456-11.008-11.776-11.008-7.936 0-13.44 3.968-13.44 10.496 0 15.616 40.32 13.312 40.32 40.064Z"/></svg>