<svg xmlns="http://www.w3.org/2000/svg" width="534" height="60" fill="none"><path fill="#fff" d="m33.158 52-2.944-8.512H12.422L9.478 52H.07L16.134 7.264h10.432L42.63 52h-9.472Zm-5.376-15.68-6.464-18.688-6.464 18.688h12.928ZM48.635 7.328h8.96v37.568h14.72V52h-23.68V7.328Zm29.247 27.584V7.328h8.96v27.648c0 6.144 3.328 9.344 9.024 9.344 5.76 0 9.088-3.2 9.088-9.344V7.328h9.024v27.584c0 11.776-8.448 17.536-18.24 17.536-9.792 0-17.856-5.76-17.856-17.536ZM122.635 52V7.328h10.176l14.208 33.216 14.208-33.216h10.112V52h-8.96V22.944L150.411 52h-6.784l-12.032-29.056V52h-8.96Zm86.81-44.736h8.96V52h-8.96l-20.288-30.656V52h-8.96V7.264h8.96l20.288 30.72V7.264ZM227.26 52V7.328h8.96V52h-8.96Z"/><path fill="#FD8E09" d="M261.282.288h9.024v59.456h-9.024V.288Zm33.08 29.312c0-13.504 9.152-22.976 21.44-22.976 10.432 0 17.408 5.248 20.608 13.632h-3.328c-2.496-6.528-8.32-11.072-17.28-11.072-10.304 0-18.496 7.68-18.496 20.416 0 12.544 8.192 20.288 18.496 20.288 8.96 0 14.784-4.544 17.28-11.072h3.328c-3.2 8.384-10.176 13.632-20.608 13.632-12.288 0-21.44-9.472-21.44-22.848Zm92.898 0c0 13.44-9.28 22.912-21.824 22.912-12.544 0-21.824-9.472-21.824-22.912 0-13.504 9.28-22.912 21.824-22.912 12.544 0 21.824 9.408 21.824 22.912Zm-40.704 0c0 12.608 8.32 20.352 18.88 20.352 10.56 0 18.816-7.744 18.816-20.352 0-12.672-8.256-20.416-18.816-20.416-10.56 0-18.88 7.744-18.88 20.416Zm73.731-9.664c0-6.336-3.328-10.304-11.968-10.304h-9.472v20.8h9.6c8.256 0 11.84-4.48 11.84-10.496Zm-24.32-12.864h12.352c10.368 0 14.976 5.44 14.976 12.864 0 6.72-3.776 11.584-11.392 12.672L423.679 52h-3.456l-11.52-19.136h-9.856V52h-2.88V7.072Zm65.123.064h2.88V52h-2.88l-26.368-40.192V52h-2.88V7.136h2.88L461.09 47.2V7.136Zm36.159-.064v2.432h-19.84v18.752h17.92v2.432h-17.92v18.88h19.84V52h-22.72V7.072h22.72Zm33.038 12.864c0-6.336-3.328-10.304-11.968-10.304h-9.472v20.8h9.6c8.256 0 11.84-4.48 11.84-10.496Zm-24.32-12.864h12.352c10.368 0 14.976 5.44 14.976 12.864 0 6.72-3.776 11.584-11.392 12.672L533.679 52h-3.456l-11.52-19.136h-9.856V52h-2.88V7.072Z"/></svg>