<svg width="477" height="164" viewBox="0 0 477 164" fill="none" xmlns="http://www.w3.org/2000/svg">
<path d="M447 82L324 153.014L324 10.9859L447 82Z" fill="#FAAE6C"/>
<path d="M356.5 15.316L472 82L356.5 148.684L356.5 15.316Z" stroke="#FAAE6C" stroke-width="5"/>
<path d="M76.544 37.528H94.464L78.72 127H60.672L31.104 65.688L20.224 127H2.176L18.048 37.528H35.968L65.664 98.968L76.544 37.528ZM164.013 37.528L161.581 51.608H127.661L123.565 74.776H153.645L151.213 88.6H121.133L116.909 112.792H150.829L148.269 127H96.301L112.173 37.528H164.013ZM182.602 127.128L174.282 37.656H193.482L197.066 107.032L227.402 37.656H247.37L252.234 106.648L280.394 37.656H299.722L258.89 127H237.77L232.266 63.384L203.594 127L182.602 127.128ZM363.135 101.4C363.135 116.76 349.951 127.896 329.471 127.896C310.911 127.896 296.831 118.552 299.007 101.272H317.311C316.671 108.312 321.279 113.56 330.111 113.56C338.559 113.56 344.191 109.976 344.191 102.936C344.191 86.808 304.511 91.032 303.999 64.152C303.743 46.872 317.951 36.376 337.151 36.376C356.223 36.376 368.255 46.36 367.103 61.848H348.031C348.799 55.704 344.575 50.84 336.255 50.84C328.319 50.84 322.815 54.808 322.815 61.336C322.815 76.952 363.135 74.648 363.135 101.4Z" fill="#013D71"/>
</svg>
