<svg width="520" height="319" viewBox="0 0 520 319" fill="none" xmlns="http://www.w3.org/2000/svg">
<path fill-rule="evenodd" clip-rule="evenodd" d="M18 122C8.05888 122 0 130.059 0 140V301C0 310.941 8.05888 319 18 319H502C511.941 319 520 310.941 520 301V18C520 8.05887 511.941 0 502 0H156C146.059 0 138 8.05888 138 18V104C138 113.941 129.941 122 120 122H18Z" fill="#E5E5E5"/>
<path d="M102.033 100.238H96.9536V92.9138C96.9497 89.6777 95.6105 86.5752 93.23 84.2869C90.8494 81.9986 87.6218 80.7114 84.2552 80.7076H69.0171C65.6505 80.7114 62.4229 81.9986 60.0423 84.2869C57.6617 86.5752 56.3226 89.6777 56.3186 92.9138V100.238H51.2393V92.9138C51.2448 88.3832 53.1196 84.0397 56.4523 80.8361C59.7851 77.6325 64.3038 75.8304 69.0171 75.8251H84.2552C88.9685 75.8304 93.4871 77.6325 96.8199 80.8361C100.153 84.0397 102.028 88.3832 102.033 92.9138V100.238Z" fill="#FD8E09"/>
<path d="M48.6994 41.6475C48.0258 41.6475 47.3798 41.9047 46.9035 42.3625C46.4272 42.8203 46.1597 43.4413 46.1597 44.0887V66.06H51.239V44.0887C51.239 43.4413 50.9715 42.8203 50.4952 42.3625C50.0189 41.9047 49.3729 41.6475 48.6994 41.6475Z" fill="#FD8E09"/>
<path d="M46.1597 31.8823V36.7648H58.8581V53.8536C58.8581 58.3858 60.7311 62.7324 64.0651 65.9371C67.3991 69.1419 71.9209 70.9423 76.6359 70.9423C81.3509 70.9423 85.8727 69.1419 89.2067 65.9371C92.5407 62.7324 94.4137 58.3858 94.4137 53.8536V36.7648H107.112V31.8823H46.1597ZM63.9375 36.7648H89.3344V44.0886H63.9375V36.7648ZM76.6359 66.0598C73.2681 66.0598 70.0382 64.7738 67.6568 62.4847C65.2753 60.1956 63.9375 57.0909 63.9375 53.8536V48.9711H89.3344V53.8536C89.3344 57.0909 87.9965 60.1956 85.6151 62.4847C83.2337 64.7738 80.0037 66.0598 76.6359 66.0598Z" fill="#FD8E09"/>
</svg>
